<?xml version="1.0" standalone="no"?>
<!DOCTYPE svg PUBLIC "-//W3C//DTD SVG 20010904//EN"
 "http://www.w3.org/TR/2001/REC-SVG-20010904/DTD/svg10.dtd">
<svg version="1.0" xmlns="http://www.w3.org/2000/svg"
 width="467.000000pt" height="534.000000pt" viewBox="0 0 467.000000 534.000000"
 preserveAspectRatio="xMidYMid meet">

<g transform="translate(0.000000,534.000000) scale(0.100000,-0.100000)"
fill="#000000" stroke="none">
<path d="M508 5132 c-15 -2 -37 -15 -48 -29 -18 -23 -20 -40 -20 -169 l0 -143
-52 -24 c-75 -35 -132 -89 -164 -154 -24 -47 -28 -69 -28 -142 -1 -75 3 -94
27 -143 33 -67 107 -138 172 -164 l45 -19 0 -97 0 -97 -55 -27 c-81 -40 -148
-108 -171 -175 -29 -82 -25 -199 9 -265 32 -62 112 -137 172 -160 l45 -17 0
-98 0 -98 -52 -24 c-73 -34 -134 -90 -165 -151 -22 -44 -26 -64 -27 -141 0
-78 4 -98 27 -147 33 -67 90 -121 163 -155 l54 -24 0 -57 0 -57 -45 -19 c-65
-26 -139 -97 -171 -163 -38 -76 -39 -191 -4 -271 27 -63 109 -141 174 -168
l46 -19 0 -272 c0 -268 0 -272 23 -298 18 -22 34 -27 85 -32 l62 -6 0 -137 c0
-121 2 -141 19 -161 l19 -24 1086 -3 c597 -1 1086 -5 1086 -7 0 -3 -14 -29
-30 -59 -24 -43 -35 -81 -54 -207 -51 -325 -51 -334 -33 -363 20 -30 60 -43
93 -30 25 9 314 227 371 279 18 17 79 109 136 205 l102 175 257 5 c232 5 258
7 277 24 20 18 20 28 23 475 l3 456 116 195 c195 327 495 843 523 898 62 122
14 270 -109 335 -30 16 -58 21 -110 21 -128 0 -169 -36 -307 -271 -56 -95
-105 -173 -109 -173 -5 0 -9 470 -9 1044 0 1040 0 1043 -21 1070 l-20 26 -336
0 -336 0 -128 125 c-89 88 -134 125 -151 125 -621 3 -2441 4 -2460 2z m2362
-426 l0 -264 26 -31 26 -31 269 0 269 0 0 -1257 0 -1256 -172 -294 -172 -293
-1253 0 -1253 0 0 214 0 213 45 17 c132 51 239 235 175 304 -49 52 -112 34
-148 -43 -25 -52 -49 -85 -64 -85 -4 0 -8 126 -8 279 l0 280 53 24 c73 33 118
76 155 146 40 73 42 122 7 156 -46 47 -121 21 -145 -49 -6 -18 -24 -46 -40
-61 l-30 -29 0 325 0 325 52 24 c138 63 232 237 163 305 -47 48 -112 25 -145
-49 -16 -37 -53 -86 -65 -86 -3 0 -5 146 -5 324 l0 323 45 17 c131 51 240 241
175 306 -45 45 -110 34 -139 -25 -29 -57 -61 -105 -71 -105 -6 0 -10 116 -10
320 l0 320 1130 0 1130 0 0 -264z m325 -16 l140 -140 -142 0 -142 0 -3 140
c-2 77 -1 140 2 140 3 0 68 -63 145 -140z m-2755 -225 c0 -80 -4 -145 -9 -145
-17 0 -69 68 -74 97 -4 25 -4 43 1 105 2 19 59 88 73 88 5 0 9 -65 9 -145z m0
-840 c0 -80 -4 -145 -8 -145 -14 0 -60 54 -71 83 -24 62 -9 132 37 180 14 15
29 27 34 27 4 0 8 -65 8 -145z m3996 -628 c40 -34 32 -95 -22 -166 -5 -6 -134
73 -134 82 0 18 31 67 56 86 35 27 66 27 100 -2z m-3996 -208 c0 -165 -2 -170
-53 -106 -23 28 -31 48 -33 88 -3 64 8 94 49 137 17 17 32 32 34 32 2 0 3 -68
3 -151z m3809 -65 c34 -20 64 -40 67 -45 5 -8 -22 -69 -31 -69 -8 0 -126 73
-131 81 -4 7 25 69 32 69 2 0 30 -16 63 -36z m-73 -269 c0 -5 -7 -10 -14 -12
-8 -1 -11 4 -8 13 3 9 1 12 -4 9 -6 -3 -10 -15 -10 -25 0 -10 -4 -22 -10 -25
-5 -3 -10 -16 -9 -28 0 -21 0 -21 9 -2 4 12 16 27 26 35 13 11 11 3 -8 -30
-14 -25 -31 -44 -38 -42 -7 2 -10 -3 -7 -12 6 -15 -92 -191 -100 -182 -6 6 32
78 56 105 11 13 18 28 15 32 -3 5 2 12 10 15 9 3 16 10 16 16 0 5 -4 7 -9 4
-5 -4 -7 3 -4 15 5 19 4 20 -16 10 -18 -10 -21 -9 -21 10 0 19 2 20 18 8 15
-13 16 -12 3 4 -10 13 -17 15 -27 6 -11 -9 -14 -8 -14 4 0 22 -37 10 -43 -14
-6 -24 3 -60 13 -54 5 3 5 -5 2 -17 -5 -20 -7 -20 -10 -5 -2 11 -9 16 -18 13
-8 -3 -14 -1 -14 5 0 6 -5 7 -12 3 -9 -6 -9 -9 0 -12 7 -2 12 -10 12 -18 0 -9
5 -12 10 -9 6 3 10 1 10 -5 0 -7 -8 -9 -19 -5 -25 8 -52 -30 -46 -64 3 -14 2
-19 -2 -11 -3 8 -12 20 -20 25 -10 8 -5 24 29 80 23 39 46 73 51 76 5 3 8 9 7
13 -2 11 64 126 72 126 13 0 9 -18 -4 -23 -8 -3 -6 -6 5 -6 21 -1 23 -39 2
-47 -8 -4 -15 -14 -14 -23 0 -9 3 -11 5 -4 6 13 44 -19 44 -36 0 -5 7 -11 15
-15 18 -6 18 -5 5 28 -5 14 -16 26 -25 26 -8 0 -15 5 -15 11 0 5 4 8 8 5 5 -3
15 10 24 29 13 29 13 35 1 39 -8 3 -11 2 -8 -3 3 -5 1 -12 -3 -15 -8 -5 -32
34 -32 50 0 3 26 -10 59 -28 32 -18 58 -37 57 -43z m-133 -173 c2 7 8 9 13 5
5 -4 4 -11 -1 -15 -6 -4 -16 -19 -24 -34 -8 -15 -18 -25 -22 -22 -5 3 -6 -2
-3 -10 3 -9 1 -16 -5 -16 -6 0 -11 -10 -12 -22 0 -23 0 -23 -10 2 -13 31 28
125 47 109 8 -7 14 -6 17 3z m-153 -96 c0 -19 5 -23 27 -22 21 1 28 -5 34 -27
4 -16 4 -25 -2 -21 -11 6 -12 -7 -1 -24 6 -9 12 -6 20 12 8 19 8 26 -1 29 -7
3 -2 4 10 4 l22 -1 -21 -36 c-20 -33 -50 -71 -34 -42 4 7 1 12 -8 12 -9 0 -16
5 -16 11 0 5 5 7 10 4 19 -12 10 7 -19 40 -22 26 -32 31 -41 22 -10 -10 -10
-7 0 11 6 13 9 26 6 29 -3 3 -8 -2 -12 -11 -3 -9 -10 -16 -15 -16 -5 0 -2 11
7 25 21 31 34 32 34 1z m-3450 -151 c0 -80 -4 -145 -8 -145 -14 0 -60 54 -71
83 -24 62 -9 132 37 180 14 15 29 27 34 27 4 0 8 -65 8 -145z m3403 87 c-9 -3
-13 -11 -10 -23 3 -10 1 -19 -4 -19 -5 0 -9 6 -9 13 0 8 -3 7 -9 -3 -6 -8 -7
-26 -5 -40 3 -14 -1 -33 -9 -44 -12 -16 -13 -15 -13 20 1 51 43 127 61 111 11
-10 10 -13 -2 -15z m81 -74 c-3 -5 -12 -2 -20 6 -20 21 -17 28 5 14 11 -7 17
-16 15 -20z m-98 -33 c-5 -44 -3 -55 8 -55 8 0 18 -5 22 -12 4 -7 3 -8 -4 -4
-15 9 -15 1 -1 -26 9 -16 7 -26 -10 -49 -12 -15 -21 -31 -21 -33 0 -3 -18 -35
-40 -71 -22 -36 -40 -67 -40 -70 0 -6 -62 -108 -69 -115 -4 -3 -15 -22 -25
-42 -10 -21 -23 -35 -29 -31 -6 3 -7 1 -3 -5 4 -6 -4 -28 -17 -49 -13 -21 -46
-77 -73 -125 -26 -47 -52 -84 -56 -82 -4 3 -8 -3 -8 -13 0 -10 -5 -25 -10 -33
-7 -11 -9 -5 -7 22 1 20 5 34 10 31 4 -2 7 1 7 7 0 6 5 8 10 5 18 -11 11 17
-7 31 -13 10 -14 13 -4 14 8 0 20 8 28 18 13 15 13 15 4 -5 -16 -31 -13 -41 4
-19 8 11 15 31 15 44 0 19 4 23 18 17 14 -5 15 -4 5 6 -18 18 -16 34 2 19 23
-19 18 4 -5 25 -24 22 -29 55 -5 35 8 -7 15 -18 15 -26 0 -7 5 -16 10 -19 17
-11 -1 48 -19 63 -9 8 -10 11 -3 7 6 -3 12 -1 12 5 0 6 7 18 15 26 13 14 16
14 21 -1 4 -9 1 -27 -6 -40 -7 -13 -10 -29 -8 -36 8 -24 39 59 32 88 -4 19 -3
24 4 14 15 -21 24 4 11 33 -11 24 -13 24 -40 10 -17 -9 -29 -23 -29 -35 0 -11
-7 -22 -15 -25 -8 -4 -15 -14 -16 -23 0 -10 -2 -12 -6 -3 -3 7 0 19 6 26 13
15 4 49 -10 40 -5 -3 -9 -10 -9 -15 0 -6 5 -7 12 -3 7 4 8 3 4 -5 -4 -6 -11
-9 -16 -6 -5 3 -11 1 -15 -5 -3 -5 -2 -10 3 -10 6 0 8 -9 5 -20 -3 -11 -1 -20
3 -20 5 0 10 -16 11 -35 2 -36 -10 -47 -21 -20 -3 8 -14 15 -25 15 -11 0 -23
5 -27 11 -5 9 1 10 20 5 20 -5 26 -3 26 10 0 10 -5 14 -15 10 -25 -9 -24 -7
56 126 29 50 56 85 62 81 6 -4 8 0 4 10 -8 21 45 113 63 109 8 -2 10 3 6 13
-3 8 4 30 15 48 12 17 18 23 14 12 -13 -38 -13 -69 1 -82 7 -8 17 -21 22 -29
14 -25 49 -25 66 1 18 28 20 39 6 30 -6 -3 -7 1 -4 9 3 9 1 16 -5 16 -11 0
-15 -13 -12 -37 1 -7 -5 -13 -13 -13 -9 0 -13 6 -10 14 3 8 1 17 -5 21 -6 3
-11 11 -11 18 0 6 6 3 13 -7 12 -16 15 -16 19 -4 7 18 -7 43 -24 43 -7 0 -14
10 -16 22 -3 17 1 20 16 16 11 -3 23 -15 27 -26 7 -22 7 -21 15 3 8 24 8 24 9
3 2 -35 45 -25 49 10 2 16 -2 27 -9 27 -8 0 -6 7 5 19 17 18 17 20 -3 40 -17
17 -18 21 -4 32 9 8 13 25 11 46 -2 18 0 33 5 33 6 0 7 -23 3 -55z m42 9 c13
-10 13 -13 -4 -22 -16 -10 -17 -13 -4 -21 11 -7 16 -6 20 4 6 17 60 60 60 47
0 -5 -9 -17 -20 -27 -10 -9 -19 -20 -18 -24 3 -12 -25 -61 -35 -61 -5 0 -4 6
2 14 9 11 8 18 -6 31 -10 10 -18 35 -19 59 -1 22 1 34 4 26 3 -8 12 -20 20
-26z m32 15 c0 -5 -7 -9 -15 -9 -8 0 -15 7 -15 15 0 9 6 12 15 9 8 -4 15 -10
15 -15z m-120 -9 c0 -5 -5 -10 -11 -10 -5 0 -7 5 -4 10 3 6 8 10 11 10 2 0 4
-4 4 -10z m-22 -59 c-8 -12 -17 -18 -21 -15 -3 3 -3 -4 0 -17 l6 -23 8 22 c11
29 17 28 15 -2 0 -13 -4 -22 -8 -19 -5 2 -8 -2 -8 -9 -1 -7 -8 -1 -16 15 -13
25 -13 30 3 57 10 18 21 26 26 21 6 -6 3 -18 -5 -30z m-40 -53 c-2 -6 -10 -14
-16 -16 -7 -2 -10 2 -6 12 7 18 28 22 22 4z m-284 -532 c-5 -14 -9 -15 -15 -4
-6 10 -11 10 -21 0 -8 -8 -9 -12 -1 -12 7 0 15 -9 18 -20 4 -11 11 -18 16 -14
5 3 7 9 4 14 -3 5 -1 11 4 15 6 3 15 -4 21 -16 8 -15 9 -19 1 -15 -6 4 -11 2
-11 -3 0 -20 -28 -11 -49 15 -19 24 -19 28 -5 56 14 27 18 29 30 16 9 -8 12
-22 8 -32z m-69 -66 c-22 -23 -24 -28 -10 -34 9 -3 14 -2 11 3 -3 5 1 14 9 21
12 10 16 9 21 -4 8 -22 3 -26 -32 -29 -21 -1 -33 -11 -47 -36 -10 -18 -16 -35
-13 -38 2 -3 10 5 16 18 11 20 13 21 22 5 5 -10 7 -20 4 -23 -3 -4 -6 -1 -6 7
0 10 -3 10 -15 0 -18 -15 -20 -31 -2 -24 7 2 13 -4 14 -16 2 -26 -1 -25 -31 5
l-25 25 35 65 c20 36 40 65 45 65 5 0 8 3 8 8 -3 16 2 23 12 16 7 -4 1 -16
-16 -34z m65 -45 c0 -8 -4 -15 -10 -15 -5 0 -10 7 -10 15 0 8 5 15 10 15 6 0
10 -7 10 -15z m-30 -66 c0 -5 -4 -9 -10 -9 -5 0 -10 7 -10 16 0 8 5 12 10 9 6
-3 10 -10 10 -16z m-5 -60 c-9 -28 2 -23 19 9 8 15 15 23 16 17 0 -5 -8 -23
-19 -38 l-18 -28 -17 25 c-13 21 -14 24 -1 20 8 -4 15 -1 15 5 0 6 -4 11 -10
11 -5 0 -10 5 -10 11 0 8 5 7 15 -1 9 -7 13 -21 10 -31z m-120 0 c-4 -11 -2
-19 4 -19 6 0 11 4 11 10 0 5 7 7 15 4 11 -5 12 -9 2 -19 -7 -7 -15 -11 -20
-8 -4 2 -11 -6 -16 -19 -10 -26 -51 -67 -51 -50 0 6 5 14 10 17 6 3 10 16 9
28 0 16 -8 7 -24 -28 -27 -56 -32 -90 -12 -79 6 4 1 -5 -13 -18 -26 -27 -42
-29 -20 -3 7 8 9 22 6 31 -7 18 84 185 97 177 4 -2 5 -13 2 -24z m102 -72 c-8
-12 -40 -67 -72 -122 -31 -55 -61 -101 -66 -103 -5 -2 -9 -9 -9 -16 0 -7 -6
-20 -13 -31 -13 -16 -14 -15 -14 16 -1 27 1 30 7 14 8 -17 9 -16 9 8 1 16 -3
26 -8 22 -5 -3 -13 0 -17 6 -4 7 -3 9 4 5 13 -8 26 29 16 46 -4 7 2 5 12 -5
14 -13 16 -20 7 -25 -7 -4 -9 -13 -4 -20 6 -10 12 -7 24 12 10 14 17 31 17 38
0 9 -3 9 -10 -2 -9 -13 -11 -13 -20 0 -5 8 -10 20 -10 25 0 6 3 5 8 -1 10 -16
40 -13 47 4 3 8 3 17 0 20 -3 3 -5 0 -5 -7 0 -7 -5 -9 -11 -5 -8 5 -8 8 0 14
7 4 13 17 14 28 2 26 1 26 21 6 9 -8 16 -11 16 -5 0 5 -4 13 -10 16 -6 4 -5
19 5 41 7 18 10 34 4 34 -5 0 -9 -7 -9 -15 0 -8 -4 -15 -9 -15 -5 0 -7 9 -4
20 3 12 14 20 25 20 21 0 22 -16 3 -65 -6 -15 -3 -14 11 5 10 14 24 31 31 38
7 8 10 18 7 24 -4 7 -2 8 5 4 9 -6 9 -13 -2 -29z m-87 -42 c0 -5 -5 -3 -10 5
-5 8 -10 20 -10 25 0 6 5 3 10 -5 5 -8 10 -19 10 -25z m-38 -15 c-20 -24 -28
-25 -36 -4 -3 8 -2 12 4 9 5 -3 15 1 22 9 20 21 30 8 10 -14z m-102 -65 c-11
-21 -24 -43 -30 -49 -14 -14 -12 -26 4 -26 10 0 13 -12 10 -49 -4 -37 -1 -50
11 -54 8 -4 15 -2 15 2 0 5 7 11 14 14 11 4 13 1 9 -10 -5 -12 -3 -14 7 -8 8
5 1 -14 -15 -41 -16 -27 -36 -61 -44 -76 -9 -16 -24 -28 -33 -28 -10 0 -18 -5
-18 -11 0 -6 7 -8 18 -4 12 4 14 3 6 -4 -11 -12 -64 7 -64 22 0 4 -6 7 -13 7
-7 0 -22 7 -34 15 -20 14 -21 17 -6 48 13 25 47 81 89 145 1 2 11 4 22 5 12 0
18 6 15 14 -4 11 -8 11 -21 1 -15 -12 -15 -11 -1 12 9 14 28 47 44 73 32 56
43 58 15 2z m33 -45 c-5 -20 -15 -25 -26 -14 -9 9 4 34 18 34 8 0 11 -8 8 -20z
m-235 -438 l24 -18 -37 -28 c-20 -15 -38 -26 -40 -24 -9 8 9 88 19 88 6 0 22
-9 34 -18z"/>
<path d="M1164 4210 c-55 -22 -69 -91 -30 -137 l24 -28 946 -3 c842 -2 950 -1
977 13 59 31 62 111 6 146 -31 18 -61 19 -967 18 -514 0 -945 -4 -956 -9z"/>
<path d="M1135 3685 c-42 -41 -31 -105 22 -133 16 -9 268 -12 968 -12 l947 0
29 29 c31 31 36 59 17 94 -25 48 13 46 -1001 47 l-958 0 -24 -25z"/>
<path d="M1136 3185 c-35 -32 -36 -86 -1 -120 l24 -25 960 0 959 0 26 31 c34
40 33 74 -3 110 l-29 29 -955 0 -954 0 -27 -25z"/>
<path d="M1139 2681 c-36 -37 -38 -79 -5 -118 l24 -28 934 -3 c650 -2 944 0
970 8 67 19 87 101 36 146 -19 18 -61 19 -975 22 l-954 2 -30 -29z"/>
<path d="M1135 2175 c-37 -36 -34 -86 6 -119 l31 -26 354 0 c372 0 402 3 418
45 12 32 6 73 -15 99 l-20 26 -375 0 -375 0 -24 -25z"/>
<path d="M4119 2478 c0 -2 -2 -10 -4 -18 -2 -8 -6 -23 -10 -32 -4 -11 -3 -18
4 -18 6 0 11 1 11 3 0 1 4 17 9 35 6 20 6 32 0 32 -5 0 -9 -1 -10 -2z"/>
<path d="M4020 2444 c-8 -16 -16 -32 -18 -36 -2 -5 1 -8 7 -8 6 0 11 6 11 14
0 8 5 16 11 18 6 2 10 12 8 23 -3 16 -6 14 -19 -11z"/>
<path d="M4051 2454 c0 -11 3 -14 6 -6 3 7 2 16 -1 19 -3 4 -6 -2 -5 -13z"/>
<path d="M3960 2341 c0 -5 5 -13 10 -16 6 -3 10 -2 10 4 0 5 -4 13 -10 16 -5
3 -10 2 -10 -4z"/>
<path d="M4007 2250 c-3 -11 -2 -20 3 -20 4 0 10 9 13 20 3 11 2 20 -3 20 -4
0 -10 -9 -13 -20z"/>
<path d="M3925 2130 c-3 -5 -1 -10 4 -10 6 0 11 5 11 10 0 6 -2 10 -4 10 -3 0
-8 -4 -11 -10z"/>
<path d="M3826 1921 c-4 -6 -3 -18 2 -27 6 -11 11 -13 16 -5 4 6 3 18 -2 27
-6 11 -11 13 -16 5z"/>
<path d="M3757 1832 c-2 -4 5 -16 16 -26 16 -15 19 -16 14 -3 -3 8 -1 17 6 20
6 2 1 6 -11 9 -12 4 -24 3 -25 0z"/>
<path d="M3627 1784 c-3 -5 1 -14 8 -21 10 -10 15 -9 19 4 4 9 4 18 1 21 -3 3
-5 -1 -5 -9 0 -12 -2 -12 -9 0 -5 7 -11 9 -14 5z"/>
<path d="M3662 1758 c-16 -16 -35 -17 -44 -4 -4 6 -10 -2 -13 -17 -4 -15 -11
-27 -17 -27 -5 0 -6 -9 -3 -20 4 -13 1 -22 -9 -26 -12 -5 -13 -9 -3 -19 14
-15 28 -10 21 9 -3 7 2 13 11 13 8 0 13 -2 11 -4 -2 -3 5 -14 16 -25 14 -14
17 -23 9 -31 -8 -8 -15 -6 -26 9 -22 29 -19 -2 5 -51 11 -22 17 -30 15 -19 -4
15 3 31 24 52 28 27 81 112 81 128 0 4 -10 -4 -21 -17 l-21 -24 6 25 c6 23 6
23 -7 8 -8 -10 -17 -15 -20 -11 -4 3 -2 12 4 19 16 19 -2 49 -19 32z m-42 -68
c0 -5 -5 -10 -11 -10 -5 0 -7 5 -4 10 3 6 8 10 11 10 2 0 4 -4 4 -10z m62 -42
c-19 -19 -22 -20 -22 -5 0 9 7 17 16 17 11 0 14 5 9 18 -5 14 -4 15 7 4 10
-10 8 -16 -10 -34z"/>
<path d="M3540 1613 c-24 -25 -30 -40 -22 -56 5 -10 54 62 50 74 -2 4 -14 -4
-28 -18z"/>
<path d="M3557 1493 c-4 -3 -7 -11 -7 -17 0 -6 5 -5 12 2 6 6 9 14 7 17 -3 3
-9 2 -12 -2z"/>
<path d="M3416 1407 c3 -10 9 -15 12 -12 3 3 0 11 -7 18 -10 9 -11 8 -5 -6z"/>
<path d="M3246 1132 c-3 -6 -2 -20 2 -33 l9 -23 6 25 c7 25 -6 48 -17 31z"/>
<path d="M3290 984 c0 -8 5 -12 10 -9 6 4 8 11 5 16 -9 14 -15 11 -15 -7z"/>
<path d="M3090 823 c0 -11 -3 -23 -7 -27 -8 -7 -9 -11 -12 -37 0 -6 -8 -9 -16
-5 -15 5 -60 -33 -50 -43 3 -2 12 4 21 15 15 19 15 18 5 -2 -5 -11 -6 -26 -1
-34 4 -7 6 -19 3 -27 -4 -9 0 -11 13 -6 12 4 15 3 10 -5 -5 -8 0 -12 13 -12
12 0 21 5 21 11 0 5 4 8 9 4 5 -3 20 9 32 27 15 22 17 28 6 19 -22 -17 -22 -2
0 28 15 23 15 25 -4 40 -11 9 -20 27 -19 40 1 13 -5 26 -11 28 -8 3 -13 -4
-13 -14z m34 -93 c-6 -6 -10 -2 -11 12 -2 16 1 18 10 9 7 -7 8 -14 1 -21z"/>
<path d="M3156 745 c-9 -26 -7 -32 5 -12 6 10 9 21 6 23 -2 3 -7 -2 -11 -11z"/>
<path d="M2990 683 c-13 -15 -12 -16 3 -10 9 3 17 2 17 -4 0 -6 4 -8 10 -4 10
6 3 35 -9 35 -3 -1 -13 -8 -21 -17z"/>
</g>
</svg>
